<svg width="939" height="150" viewBox="0 0 939 150" fill="none" xmlns="http://www.w3.org/2000/svg">
<path d="M140.46 110.03H141.1V111.65H134.66C129.81 111.65 124.99 111.16 119.93 111.16C114.87 111.16 110.06 111.65 105.38 111.65H98.94V110.03H99.36C105.51 110.03 108.59 105.98 108.59 98.05V7.12L75.58 94.17L82.53 111.65C78.17 111.65 73.8 111.32 70.23 111.32C67.01 111.32 61.98 111.65 58.26 111.65L17.96 14.23V88.5C17.96 98.69 23.95 109.98 33.66 109.98H34.14V111.6H31.68C27.31 111.6 22.13 111.11 16.95 111.11C11.77 111.11 6.6 111.6 2.39 111.6H0V109.98H0.54C10.09 109.98 16.08 98.65 16.08 88.5V11.48C13.49 5.18 8.96 3.07 5.07 3.07H3.24V1.42H9.54C14.39 1.42 19.21 1.74 23.62 1.74C29.28 1.74 33.49 1.42 37.05 1.42L74.43 91.72L108.58 1.42C112.14 1.42 118.13 1.74 122.49 1.74C126.38 1.74 129.77 1.42 134.63 1.42H141.07V3.04H140.43C134.11 3.04 131.2 7.09 131.2 15.02V98.09C131.23 105.98 134.14 110.03 140.46 110.03Z" fill="white"/>
<path d="M178.64 111.65C173.46 111.65 169.75 111.16 164.41 111.16C159.07 111.16 155.34 111.65 150.17 111.65H144.8V110.19H145.44C152.4 110.19 153.85 105.34 153.85 98.86V49.68C153.85 43.24 152.4 38.35 145.44 38.35H144.8V36.87H149.84C157.77 36.87 170.87 34.44 173.78 30.23H174.92V98.83C174.92 105.27 176.37 110.16 183.33 110.16H183.97V111.62L178.64 111.65ZM152.27 11.16C152.27 4.53 157.64 0 163.91 0C170.18 0 175.61 4.53 175.61 11.16C175.61 17.79 170.11 22.33 163.96 22.33C157.81 22.33 152.27 17.96 152.27 11.16Z" fill="white"/>
<path d="M183.98 133.17C183.98 124.76 195.47 120.39 206.64 117.32C198.22 116.35 188.03 112.47 188.03 103.56C188.03 95.15 197.1 89.01 208.26 84.63C197.1 80.58 189.82 71.52 189.82 59.23C189.82 42.24 203.89 31.07 223.12 31.07C228.58 30.98 233.99 32.08 238.98 34.29C242.7 27.65 249.33 20.05 257.24 20.05C262.26 20.05 265.49 22.8 265.49 27.01C265.55 30.79 262.54 33.9 258.76 33.96C258.63 33.96 258.5 33.96 258.37 33.96C253.19 33.96 250.93 30.24 246.56 30.24C244.13 30.24 242.35 31.31 240.24 34.93C249.91 39.3 256.25 47.82 256.25 59.03C256.25 75.86 242.34 87.19 223.08 87.19C218.74 87.22 214.43 86.56 210.3 85.25C204.93 87.19 201.07 89.14 201.07 92.69C201.07 95.76 204.64 97.71 214.51 99.01L234.92 101.6C252.56 103.86 264.37 109.69 264.37 123.93C264.37 141.41 245.27 149.49 222.62 149.49C201.3 149.51 183.99 142.39 183.99 133.16L183.98 133.17ZM250.65 134.31C250.65 125.89 239.97 122.82 229.62 121.2L209.39 117.98C201.13 120.41 197.09 125.58 197.09 132.87C197.09 141.29 204.69 148.08 223.46 148.08C243.04 148.07 250.65 141.93 250.65 134.32V134.31ZM235.61 59.06C235.61 41.75 232.22 32.53 222.99 32.53C213.76 32.53 210.53 41.75 210.53 59.06C210.53 76.37 213.75 85.6 222.99 85.6C232.23 85.6 235.6 76.53 235.6 59.06H235.61Z" fill="white"/>
<path d="M300.21 111.65C294.71 111.65 290.83 111.16 285.17 111.16C279.51 111.16 276.12 111.65 270.94 111.65H265.57V110.19H266.23C273.18 110.19 274.64 105.34 274.64 98.86V49.68C274.64 43.24 273.18 38.35 266.23 38.35H265.57V36.87H270.42C278.52 36.87 291.46 34.44 294.37 30.23H295.66V50.83C298.26 46.3 301.49 40.96 305.53 36.76C308.45 33.68 312.33 31.09 317.51 31.09C323.01 31.09 326.74 34.31 326.74 39.02C326.74 44.04 323.35 47.44 317.84 47.44C312.66 47.44 309.25 43.55 305.22 43.55C302 43.55 299.08 47.12 295.67 53.74V98.85C295.67 105.29 298.75 110.18 305.7 110.18H308.62V111.64H300.21V111.65Z" fill="white"/>
<path d="M375.09 103.07C369.1 108.09 360.53 112.94 349.85 112.94C336.9 112.94 328.65 105.17 328.65 92.23C328.65 79.29 339.65 71.03 353.25 65.38L374.32 56.63V42.24C374.32 35.44 372.55 33.01 367.37 33.01C359.43 33.01 353.61 38.38 347.79 48.54C344.57 55.34 342.42 58.57 337.92 58.57C333.95 58.63 330.69 55.45 330.63 51.49C330.63 51.37 330.63 51.25 330.63 51.13C330.63 39.65 355.33 31.07 371.72 31.07C389.36 31.07 394.87 36.9 394.87 50.97V99.68C394.87 104.05 396.32 105.82 399.23 105.82C402.14 105.82 404.9 101.94 406.19 98.38L407.49 98.86C405.22 106.46 398.75 112.94 389.23 112.94C381.71 112.94 376.7 109.22 375.08 103.07H375.09ZM374.77 101.45C374.4 98.88 374.23 96.28 374.28 93.68V58.41L363.12 62.94C352.28 67.31 350.02 74.92 350.02 89.16C350.02 103.4 353.09 108.57 359.4 108.57C364.42 108.57 369.59 105.5 374.78 101.45H374.77Z" fill="white"/>
<path d="M435.29 135.43C435.29 141.87 438.51 146.76 445.48 146.76H448.43V148.21H440.02C434.52 148.21 430.63 147.73 424.98 147.73C419.33 147.73 415.75 148.21 410.74 148.21H405.24V146.76H406.05C412.85 146.76 414.47 141.91 414.47 135.43V49.68C414.47 43.24 412.85 38.35 406.05 38.35H405.24V36.87H410.26C418.35 36.87 431.29 34.44 434.21 30.23H435.34V39.78C440.84 35.57 448.12 31.04 457.35 31.04C473.86 31.04 488.41 43.5 488.41 71.98C488.41 100.46 473.86 112.91 457.35 112.91C448.12 112.91 440.68 108.38 435.34 104.18L435.29 135.44V135.43ZM465.36 72.06C465.36 38.08 460.83 33.87 453.38 33.87C446.59 33.87 440.28 38.08 435.26 42.13V102C440.11 106.04 446.59 110.25 453.38 110.25C460.84 110.2 465.38 105.99 465.38 72.01L465.36 72.06Z" fill="white"/>
<path d="M527.2 111.65C521.7 111.65 517.81 111.16 512.16 111.16C506.51 111.16 503.09 111.65 497.92 111.65H492.55V110.19H493.21C500.16 110.19 501.62 105.34 501.62 98.86V49.68C501.62 43.24 500.16 38.35 493.21 38.35H492.55V36.87H497.4C505.49 36.87 518.44 34.44 521.35 30.23H522.64V50.83C525.23 46.3 528.47 40.96 532.51 36.76C535.42 33.68 539.31 31.09 544.49 31.09C549.99 31.09 553.72 34.31 553.72 39.02C553.72 44.04 550.32 47.44 544.82 47.44C539.64 47.44 536.23 43.55 532.2 43.55C528.98 43.55 526.06 47.12 522.65 53.74V98.85C522.65 105.29 525.73 110.18 532.68 110.18H535.6V111.64H527.2V111.65Z" fill="white"/>
<path d="M552.77 72.65C552.77 45.46 573.18 31.06 590.79 31.06C608.4 31.06 623.01 42.71 622.83 61.32H575.1C574.94 63.75 574.94 64.4 574.94 64.72C574.94 88.35 584.61 102.42 599.2 102.42C608.1 102.42 617.65 97.4 622.19 82.68L623.64 83.16C618.62 100.64 607.13 112.93 589.01 112.93C570.89 112.93 552.77 97.72 552.77 72.64V72.65ZM590.15 32.68C582.55 32.68 575.91 38.98 575.11 59.53H603.42C603.25 39.96 598.07 32.68 590.14 32.68H590.15Z" fill="white"/>
<path d="M708.92 111.65C703.74 111.65 700.02 111.16 694.68 111.16C689.34 111.16 685.61 111.65 680.44 111.65H675.07V110.19H675.71C682.67 110.19 684.13 105.34 684.13 98.86V44.01C684.13 39.16 681.98 37.22 678.62 37.22C675.87 37.22 671.99 38.67 668.59 39.97L657.43 44.17V98.86C657.43 105.3 658.89 110.19 665.84 110.19H666.5V111.65H661.13C655.94 111.65 652.23 111.16 646.89 111.16C641.55 111.16 637.82 111.65 632.65 111.65H627.28V110.19H627.92C634.88 110.19 636.34 105.34 636.34 98.86V49.68C636.34 43.24 634.88 38.35 627.92 38.35H627.28V36.87H632.3C640.23 36.87 653.33 34.44 656.25 30.23H657.38V42.37L675.64 35.57C682.6 32.98 688.43 31.04 693.9 31.04C701.02 31.04 705.06 34.93 705.06 43.5V98.84C705.06 105.28 706.52 110.17 713.48 110.17H714.12V111.63L708.93 111.66L708.92 111.65Z" fill="white"/>
<path d="M716.52 72.65C716.52 45.46 736.93 31.06 754.54 31.06C772.15 31.06 786.76 42.71 786.58 61.32H738.85C738.69 63.75 738.69 64.4 738.69 64.72C738.69 88.35 748.36 102.42 762.95 102.42C771.85 102.42 781.4 97.4 785.94 82.68L787.39 83.16C782.37 100.64 770.89 112.93 752.76 112.93C734.63 112.93 716.52 97.72 716.52 72.64V72.65ZM753.9 32.68C746.3 32.68 739.66 38.98 738.86 59.53H767.17C767 39.96 761.82 32.68 753.89 32.68H753.9Z" fill="white"/>
<path d="M870.55 111.65C865.37 111.65 861.65 111.16 856.31 111.16C851.94 111.16 849.35 111.65 845.79 111.65V101.98L828.31 108.42C821.19 111.17 815.69 112.95 810.19 112.95C803.07 112.95 798.86 109.07 798.86 100.49V49.69C798.86 43.25 797.4 38.36 790.45 38.36H789.79V36.86H794.81C802.75 36.86 815.85 34.43 818.76 30.22H819.9V99.96C819.9 104.81 822.05 106.76 825.4 106.76C828.15 106.76 832.03 105.3 835.43 104.01L845.78 100.12V49.64C845.78 43.2 844.32 38.31 837.37 38.31H836.71V36.86H841.73C849.66 36.86 862.77 34.43 865.68 30.22H866.75V98.82C866.75 105.26 868.21 110.15 875.17 110.15H875.81V111.61L870.53 111.64L870.55 111.65Z" fill="white"/>
<path d="M912.32 111.65C906.82 111.65 902.93 111.16 897.28 111.16C891.63 111.16 888.21 111.65 883.04 111.65H877.67V110.19H878.31C885.27 110.19 886.73 105.34 886.73 98.86V49.68C886.73 43.24 885.27 38.35 878.31 38.35H877.67V36.87H882.52C890.61 36.87 903.55 34.44 906.46 30.23H907.76V50.83C910.35 46.3 913.58 40.96 917.63 36.76C920.54 33.68 924.43 31.09 929.61 31.09C935.11 31.09 938.84 34.31 938.84 39.02C938.84 44.04 935.44 47.44 929.94 47.44C924.76 47.44 921.35 43.55 917.32 43.55C914.1 43.55 911.17 47.12 907.77 53.74V98.85C907.77 105.29 910.84 110.18 917.8 110.18H920.71V111.64H912.32V111.65Z" fill="white"/>
</svg>
