<?xml version="1.0" encoding="utf-8"?>
<!-- Generator: Adobe Illustrator 27.7.0, SVG Export Plug-In . SVG Version: 6.00 Build 0)  -->
<svg version="1.1" id="Ebene_1" xmlns="http://www.w3.org/2000/svg" xmlns:xlink="http://www.w3.org/1999/xlink" x="0px" y="0px"
	 width="346px" height="50px" viewBox="0 0 346 50" style="enable-background:new 0 0 346 50;" xml:space="preserve">
<style type="text/css">
	.st0{fill:#FFFFFF;}
</style>
<path class="st0" d="M48.8,38.4v0.5h-1.9c-1.4,0-2.9-0.1-4.4-0.1c-1.5,0-2.9,0.1-4.3,0.1h-1.9v-0.5h0.1c1.8,0,2.7-1.2,2.7-3.5V8
	l-9.8,25.7l2.1,5.1c-1.3,0-2.6-0.1-3.6-0.1c-1,0-2.4,0.1-3.6,0.1l-12-28.7V32c0,3,1.8,6.3,4.7,6.3H17v0.5h-0.7
	c-1.3,0-2.8-0.1-4.4-0.1s-3.1,0.1-4.3,0.1H6.9v-0.5H7c2.8,0,4.6-3.3,4.6-6.3V9.3c-0.8-1.9-2.1-2.5-3.3-2.5H7.8V6.4h1.9
	c1.4,0,2.9,0.1,4.2,0.1c1.7,0,2.9-0.1,4-0.1L29,33L39.1,6.4c1.1,0,2.8,0.1,4.1,0.1c1.2,0,2.2-0.1,3.6-0.1h1.9v0.5h-0.2
	c-1.9,0-2.7,1.2-2.7,3.5v24.5c0,2.3,0.9,3.5,2.7,3.5H48.8z"/>
<path class="st0" d="M60.4,38.8c-1.5,0-2.6-0.1-4.2-0.1c-1.6,0-2.7,0.1-4.2,0.1h-1.6v-0.4h0.2c2.1,0,2.5-1.4,2.5-3.3V20.6
	c0-1.9-0.4-3.3-2.5-3.3h-0.2v-0.4h1.5c2.4,0,6.2-0.7,7.1-2h0.3v20.2c0,1.9,0.4,3.3,2.5,3.3H62v0.4H60.4z M52.6,9.2
	c0-2,1.6-3.3,3.5-3.3c1.9,0,3.5,1.3,3.5,3.3c0,2-1.6,3.3-3.5,3.3S52.6,11.2,52.6,9.2z"/>
<path class="st0" d="M62.1,45.2c0-2.5,3.4-3.8,6.7-4.7c-2.5-0.3-5.5-1.4-5.5-4.1c0-2.5,2.7-4.3,6-5.6c-3.3-1.2-5.5-3.9-5.5-7.5
	c0-5,4.2-8.3,9.9-8.3c1.7,0,3.4,0.3,4.7,1c1.1-2,3.1-4.2,5.4-4.2c1.5,0,2.4,0.8,2.4,2.1S85.4,16,84.2,16c-1.5,0-2.2-1.1-3.5-1.1
	c-0.7,0-1.2,0.3-1.9,1.4c2.9,1.3,4.8,3.8,4.8,7.1c0,5-4.1,8.3-9.8,8.3c-1.3,0-2.6-0.2-3.8-0.6c-1.6,0.6-2.7,1.1-2.7,2.2
	c0,0.9,1.1,1.5,4,1.9l6,0.8c5.2,0.7,8.7,2.4,8.7,6.6c0,5.1-5.7,7.5-12.4,7.5C67.3,50,62.1,47.9,62.1,45.2z M81.9,45.5
	c0-2.5-3.2-3.4-6.2-3.9l-6-1c-2.4,0.7-3.6,2.2-3.6,4.4c0,2.5,2.3,4.5,7.8,4.5C79.4,49.6,81.9,47.8,81.9,45.5z M77.4,23.3
	c0-5.1-1-7.8-3.7-7.8S70,18.2,70,23.3c0,5.1,1,7.8,3.7,7.8S77.4,28.5,77.4,23.3z"/>
<path class="st0" d="M96.9,38.8c-1.6,0-2.8-0.1-4.5-0.1c-1.6,0-2.7,0.1-4.2,0.1h-1.6v-0.4h0.2c2.1,0,2.5-1.4,2.5-3.3V20.6
	c0-1.9-0.4-3.3-2.5-3.3h-0.2v-0.4h1.4c2.4,0,6.2-0.7,7.1-2h0.4v6.1c0.8-1.3,1.7-2.9,2.9-4.1c0.9-0.9,2-1.7,3.6-1.7
	c1.6,0,2.7,1,2.7,2.3c0,1.5-1,2.5-2.6,2.5c-1.5,0-2.5-1.1-3.7-1.1c-1,0-1.8,1-2.8,3v13.3c0,1.9,0.9,3.3,3,3.3h0.9v0.4H96.9z"/>
<path class="st0" d="M119.1,36.3c-1.8,1.5-4.3,2.9-7.5,2.9c-3.8,0-6.3-2.3-6.3-6.1c0-3.8,3.3-6.2,7.3-7.9l6.2-2.6v-4.2
	c0-2-0.5-2.7-2.1-2.7c-2.4,0-4.1,1.6-5.8,4.6c-1,2-1.6,3-2.9,3c-1.2,0-2.2-0.9-2.2-2.2c0-3.4,7.3-5.9,12.2-5.9
	c5.2,0,6.9,1.7,6.9,5.9v14.4c0,1.3,0.4,1.8,1.3,1.8c0.9,0,1.7-1.1,2.1-2.2l0.4,0.1c-0.7,2.2-2.6,4.1-5.4,4.1
	C121.1,39.2,119.6,38.1,119.1,36.3z M119,35.8c-0.1-0.4-0.1-1.5-0.1-2.3V23.2l-3.3,1.3c-3.2,1.3-3.9,3.5-3.9,7.7s0.9,5.7,2.8,5.7
	C116,37.9,117.5,37,119,35.8z"/>
<path class="st0" d="M136.3,46.3h-46v-0.9h45.1V0.9H0.9v44.5h55.8v0.9H0V0h136.3V46.3z"/>
<path class="st0" d="M242.7,19.7c1.8,0,3-1.1,3-2.6s-1.2-2.5-3-2.5s-3,1-3,2.5S240.9,19.7,242.7,19.7z"/>
<path class="st0" d="M286,14.7c-2.4,0-3.8,2.4-3.8,6.8c0,4.3,1.3,6.8,3.8,6.8c2.5,0,3.8-2.5,3.8-6.8C289.8,17.1,288.5,14.7,286,14.7
	z"/>
<path class="st0" d="M204.3,19.4c-1.9,0-3.2,1.7-3.2,4.4c0,2.8,1.2,4.4,3.2,4.4c1.8,0,3.1-1.8,3.1-4.4S206.1,19.4,204.3,19.4z"/>
<path class="st0" d="M226.2,14.7c-2.4,0-3.8,2.4-3.8,6.8c0,4.3,1.3,6.8,3.8,6.8c2.5,0,3.8-2.5,3.8-6.8
	C229.9,17.1,228.6,14.7,226.2,14.7z"/>
<path class="st0" d="M242.7,22.2c-2,0-3.3,1.2-3.3,3s1.3,3,3.3,3c2,0,3.4-1.2,3.4-3S244.7,22.2,242.7,22.2z"/>
<path class="st0" d="M322.8,0h-154c-12.4,0-22.5,10.1-22.5,22.5S156.4,45,168.8,45h154c12.4,0,22.5-10.1,22.5-22.5S335.2,0,322.8,0z
	 M181.1,15.3h-9.6v4.5h9.1v2.9h-9.1v7.8h-3.6V12.4h13.2V15.3z M188.9,28.2c1,0,2.1-0.4,2.8-1.6h3.5c-0.7,2-2.7,4.2-6.3,4.2
	c-4.3,0-6.9-3.2-6.9-7.1c0-4,2.8-7,6.8-7c4.2,0,6.8,3.2,6.6,8h-9.9C185.6,27,187.2,28.2,188.9,28.2z M205.2,30.8c-1.4,0-3-0.5-3.9-2
	v1.7h-3.4V12.4h3.4v6.4c0.7-1.2,2.2-2,3.9-2c3.2,0,5.9,2.8,5.9,7C211,28.1,208.4,30.8,205.2,30.8z M226.2,30.8
	c-4.8,0-7.3-3.9-7.3-9.4c0-5.5,2.5-9.4,7.3-9.4c4.8,0,7.3,3.9,7.3,9.4C233.4,26.9,231,30.8,226.2,30.8z M242.7,30.8
	c-3.8,0-6.8-2-6.8-5.5c0-1.8,0.8-3.4,2.8-4.5c-1.5-0.8-2.2-2.5-2.2-4.1c0-2.7,2.5-4.7,6.3-4.7c3.9,0,6.3,2,6.3,4.7
	c0,1.6-0.7,3.1-2.2,4.1c2,1.2,2.8,2.8,2.8,4.5C249.6,28.9,246.5,30.8,242.7,30.8z M255.6,30.8l-2,4h-2l1.8-4.2h-1.7v-3.8h3.9V30.8z
	 M276.9,30.5h-13.3v-2.8c5.8-4.7,9.4-7.7,9.4-10.6c0-1.6-1-2.5-2.7-2.5c-1.5,0-3.1,0.9-3.1,3.6h-3.3c-0.1-3.8,2.6-6.2,6.6-6.2
	c3.6,0,5.9,1.7,5.9,4.9c0,3.4-3.3,7-8.9,10.7h9.3V30.5z M286,30.8c-4.8,0-7.3-3.9-7.3-9.4c0-5.5,2.5-9.4,7.3-9.4
	c4.8,0,7.3,3.9,7.3,9.4C293.3,26.9,290.9,30.8,286,30.8z M308.5,30.5h-13.3v-2.8c5.8-4.7,9.4-7.7,9.4-10.6c0-1.6-1-2.5-2.7-2.5
	c-1.5,0-3.1,0.9-3.1,3.6h-3.4c0-3.8,2.6-6.2,6.6-6.2c3.6,0,6,1.7,6,4.9c0,3.4-3.3,7-8.9,10.7h9.3V30.5z M324.5,26.2h-3.1v4.3H318
	v-4.3h-9v-2.7l9-11.1h3.4v10.8h3.1V26.2z"/>
<path class="st0" d="M188.8,19.3c-1.3,0-3,0.8-3.2,3.1h6.4C191.8,20.1,190.2,19.3,188.8,19.3z"/>
<polygon class="st0" points="318,23.2 318,16.8 312.8,23.2 "/>
</svg>
