<svg width="346" height="50" viewBox="0 0 346 50" fill="none" xmlns="http://www.w3.org/2000/svg">
<path d="M48.7571 38.3657V38.8425H46.8365C45.396 38.8425 43.9555 38.6995 42.467 38.6995C40.9785 38.6995 39.538 38.8425 38.1456 38.8425H36.225V38.3657H36.369C38.1936 38.3657 39.1059 37.1737 39.1059 34.8373V8.04029L29.3107 33.6929L31.3754 38.8425C30.0789 38.8425 28.7825 38.7472 27.7261 38.7472C26.7658 38.7472 25.2773 38.8425 24.173 38.8425L12.214 10.1383V32.0241C12.214 35.028 13.9906 38.3657 16.8716 38.3657H17.0156V38.8425H16.2954C14.9989 38.8425 13.4624 38.6995 11.9259 38.6995C10.3894 38.6995 8.85292 38.8425 7.60451 38.8425H6.88427V38.3657H7.02832C9.86125 38.3657 11.6378 35.028 11.6378 32.0241V9.32769C10.8696 7.46811 9.52514 6.84825 8.37276 6.84825H7.84459V6.37144H9.71721C11.1577 6.37144 12.5982 6.4668 13.8946 6.4668C15.5751 6.4668 16.8236 6.37144 17.8799 6.37144L28.9716 32.9777L39.1029 6.37144C40.1593 6.37144 41.9358 6.4668 43.2323 6.4668C44.3846 6.4668 45.393 6.37144 46.8335 6.37144H48.7541V6.84825H48.562C46.6894 6.84825 45.8251 8.04029 45.8251 10.3767V34.8373C45.8251 37.1737 46.6894 38.3657 48.562 38.3657H48.7571Z" fill="#111827"/>
<path d="M60.4219 38.8425C58.8854 38.8425 57.7811 38.6995 56.1965 38.6995C54.612 38.6995 53.5077 38.8425 51.9711 38.8425H50.3866V38.4134H50.5787C52.6434 38.4134 53.0755 36.983 53.0755 35.0757V20.5805C53.0755 18.6733 52.6434 17.2428 50.5787 17.2428H50.3866V16.8137H51.8751C54.2279 16.8137 58.1172 16.0985 58.9815 14.8587H59.3176V35.0757C59.3176 36.983 59.7497 38.4134 61.8144 38.4134H62.0065V38.8425H60.4219ZM52.5954 9.23233C52.5954 7.27739 54.1799 5.94231 56.0525 5.94231C57.9251 5.94231 59.5096 7.27739 59.5096 9.23233C59.5096 11.1873 57.8771 12.5224 56.0525 12.5224C54.2279 12.5224 52.5954 11.2349 52.5954 9.23233Z" fill="#111827"/>
<path d="M62.1205 45.1842C62.1205 42.7047 65.5296 41.4173 68.8427 40.5114C66.3459 40.2253 63.3209 39.0809 63.3209 36.4585C63.3209 33.979 66.0098 32.1671 69.3229 30.8797C66.0098 29.6877 63.8491 27.0175 63.8491 23.3937C63.8491 18.3872 68.0264 15.0972 73.7403 15.0972C75.4689 15.0972 77.1494 15.4309 78.4459 16.0508C79.5502 14.0958 81.5189 11.8548 83.8717 11.8548C85.3602 11.8548 86.3205 12.6654 86.3205 13.9051C86.3205 15.1448 85.4082 15.9554 84.2078 15.9554C82.6713 15.9554 81.9991 14.8587 80.7026 14.8587C79.9824 14.8587 79.4542 15.1925 78.83 16.2415C81.711 17.5289 83.5836 20.056 83.5836 23.346C83.5836 28.3049 79.4542 31.6426 73.7403 31.6426C72.3959 31.6426 71.1475 31.4519 69.9471 31.0704C68.3626 31.6426 67.2102 32.2148 67.2102 33.2638C67.2102 34.1697 68.2665 34.7419 71.1955 35.1234L77.2455 35.8863C82.4792 36.5538 85.9844 38.2704 85.9844 42.4663C85.9844 47.6159 80.3185 50 73.5963 50C67.2582 50 62.1205 47.902 62.1205 45.1842ZM81.903 45.5179C81.903 43.0385 78.734 42.1326 75.661 41.6557L69.659 40.7021C67.2102 41.4173 66.0098 42.9431 66.0098 45.0888C66.0098 47.5682 68.2665 49.5709 73.8364 49.5709C79.4062 49.5709 81.903 47.759 81.903 45.5179ZM77.4375 23.346C77.4375 18.2441 76.4292 15.5263 73.6923 15.5263C70.9554 15.5263 69.9951 18.2441 69.9951 23.346C69.9951 28.448 70.9554 31.1658 73.6923 31.1658C76.4292 31.1658 77.4375 28.4956 77.4375 23.346Z" fill="#111827"/>
<path d="M96.923 38.8425C95.2904 38.8425 94.1381 38.6995 92.4575 38.6995C90.873 38.6995 89.7686 38.8425 88.2321 38.8425H86.6476V38.4134H86.8397C88.9043 38.4134 89.3365 36.983 89.3365 35.0757V20.5805C89.3365 18.6733 88.9043 17.2428 86.8397 17.2428H86.6476V16.8137H88.0881C90.4889 16.8137 94.3301 16.0985 95.1944 14.8587H95.5785V20.9143C96.3468 19.5792 97.3071 18.0057 98.5075 16.766C99.3718 15.8601 100.524 15.0972 102.061 15.0972C103.693 15.0972 104.798 16.0508 104.798 17.4335C104.798 18.9117 103.789 19.913 102.157 19.913C100.62 19.913 99.6119 18.7686 98.4115 18.7686C97.4512 18.7686 96.5869 19.8176 95.5785 21.7726V35.0757C95.5785 36.983 96.4908 38.4134 98.5555 38.4134H99.4198V38.8425H96.923Z" fill="#111827"/>
<path d="M119.136 36.3154C117.36 37.7935 114.815 39.224 111.646 39.224C107.805 39.224 105.356 36.9353 105.356 33.1208C105.356 29.3062 108.621 26.8745 112.654 25.2056L118.896 22.6308V18.3872C118.896 16.3846 118.368 15.6693 116.832 15.6693C114.479 15.6693 112.75 17.2428 111.022 20.2468C110.061 22.2494 109.437 23.203 108.093 23.203C106.94 23.203 105.932 22.3447 105.932 21.0097C105.932 17.6243 113.278 15.0972 118.128 15.0972C123.362 15.0972 124.994 16.8137 124.994 20.962V35.3141C124.994 36.6015 125.426 37.126 126.291 37.126C127.155 37.126 127.971 35.9816 128.355 34.9326L128.739 35.0757C128.067 37.3167 126.147 39.224 123.314 39.224C121.105 39.224 119.616 38.1273 119.136 36.3154ZM119.04 35.8386C118.944 35.4095 118.896 34.3605 118.896 33.5499V23.1553L115.583 24.4904C112.366 25.7778 111.694 28.0188 111.694 32.2148C111.694 36.4108 112.606 37.9366 114.479 37.9366C115.967 37.9366 117.504 37.0306 119.04 35.8386Z" fill="#111827"/>
<path d="M136.296 46.3315H90.2938V45.4375H135.396V0.894028H0.900297V45.4375H56.7397V46.3315H0V0H136.296V46.3315Z" fill="#111827"/>
<rect x="146.296" width="199" height="45" rx="22.5" fill="#111827"/>
<path d="M167.921 12.375H181.121V15.275H171.496V19.775H180.596V22.675H171.496V30.5H167.921V12.375ZM185.465 24.725C185.64 27.025 187.24 28.15 188.865 28.15C189.915 28.15 190.99 27.775 191.69 26.6H195.24C194.515 28.6 192.54 30.825 188.89 30.825C184.565 30.825 182.04 27.6 182.04 23.725C182.04 19.725 184.815 16.75 188.79 16.75C192.94 16.75 195.54 19.975 195.39 24.725H185.465ZM185.515 22.35H191.89C191.815 20.075 190.215 19.275 188.765 19.275C187.465 19.275 185.79 20.1 185.515 22.35ZM197.863 30.5V12.375H201.313V18.775C202.038 17.525 203.488 16.75 205.188 16.75C208.438 16.75 211.038 19.55 211.038 23.775C211.038 28.075 208.388 30.825 205.188 30.825C203.788 30.825 202.163 30.275 201.313 28.8V30.5H197.863ZM207.413 23.8C207.413 21.175 206.113 19.4 204.338 19.4C202.438 19.4 201.188 21.075 201.188 23.775C201.188 26.525 202.438 28.175 204.338 28.175C206.113 28.175 207.413 26.425 207.413 23.8ZM218.857 21.4C218.857 15.9 221.307 12.05 226.157 12.05C230.982 12.05 233.432 15.9 233.432 21.4C233.432 26.925 230.982 30.825 226.157 30.825C221.307 30.825 218.857 26.925 218.857 21.4ZM229.907 21.4C229.907 17.075 228.607 14.65 226.157 14.65C223.707 14.65 222.382 17.075 222.382 21.4C222.382 25.75 223.707 28.225 226.157 28.225C228.607 28.225 229.907 25.75 229.907 21.4ZM249.01 16.7C249.01 18.325 248.36 19.85 246.81 20.8C248.835 21.95 249.56 23.575 249.56 25.325C249.56 28.875 246.535 30.825 242.685 30.825C238.86 30.825 235.835 28.875 235.835 25.325C235.835 23.575 236.585 21.925 238.61 20.8C237.11 19.95 236.385 18.325 236.385 16.725C236.385 14.025 238.86 12.05 242.685 12.05C246.535 12.05 249.01 14.025 249.01 16.7ZM242.685 14.65C240.885 14.65 239.735 15.625 239.735 17.125C239.735 18.625 240.885 19.725 242.685 19.725C244.485 19.725 245.66 18.625 245.66 17.125C245.66 15.625 244.485 14.65 242.685 14.65ZM239.36 25.175C239.36 26.975 240.66 28.225 242.685 28.225C244.735 28.225 246.035 26.975 246.035 25.175C246.035 23.375 244.735 22.2 242.685 22.2C240.66 22.2 239.36 23.375 239.36 25.175ZM251.737 26.75H255.612V30.775L253.562 34.75H251.587L253.437 30.5H251.737V26.75ZM276.498 16.925C276.498 20.325 273.198 23.875 267.623 27.6H276.923V30.5H263.598V27.7C269.423 23 273.023 19.975 273.023 17.1C273.023 15.525 272.023 14.6 270.348 14.6C268.823 14.6 267.273 15.525 267.273 18.225H263.923C263.873 14.475 266.523 12.05 270.548 12.05C274.173 12.05 276.498 13.775 276.498 16.925ZM278.75 21.4C278.75 15.9 281.2 12.05 286.05 12.05C290.875 12.05 293.325 15.9 293.325 21.4C293.325 26.925 290.875 30.825 286.05 30.825C281.2 30.825 278.75 26.925 278.75 21.4ZM289.8 21.4C289.8 17.075 288.5 14.65 286.05 14.65C283.6 14.65 282.275 17.075 282.275 21.4C282.275 25.75 283.6 28.225 286.05 28.225C288.5 28.225 289.8 25.75 289.8 21.4ZM308.052 16.925C308.052 20.325 304.752 23.875 299.177 27.6H308.477V30.5H295.152V27.7C300.977 23 304.577 19.975 304.577 17.1C304.577 15.525 303.577 14.6 301.902 14.6C300.377 14.6 298.827 15.525 298.827 18.225H295.477C295.427 14.475 298.077 12.05 302.102 12.05C305.727 12.05 308.052 13.775 308.052 16.925ZM324.491 26.15H321.391V30.5H317.966V26.15H309.016V23.45L318.016 12.375H321.391V23.225H324.491V26.15ZM312.791 23.225H317.966V16.75L312.791 23.225Z" fill="white"/>
</svg>
