<svg width="369" height="50" viewBox="0 0 369 50" fill="none" xmlns="http://www.w3.org/2000/svg">
<path d="M48.7571 38.3657V38.8425H46.8365C45.396 38.8425 43.9555 38.6995 42.467 38.6995C40.9785 38.6995 39.538 38.8425 38.1456 38.8425H36.225V38.3657H36.369C38.1936 38.3657 39.1059 37.1737 39.1059 34.8373V8.04029L29.3107 33.6929L31.3754 38.8425C30.0789 38.8425 28.7825 38.7472 27.7261 38.7472C26.7658 38.7472 25.2773 38.8425 24.173 38.8425L12.214 10.1383V32.0241C12.214 35.028 13.9906 38.3657 16.8716 38.3657H17.0156V38.8425H16.2954C14.9989 38.8425 13.4624 38.6995 11.9259 38.6995C10.3894 38.6995 8.85292 38.8425 7.60451 38.8425H6.88427V38.3657H7.02832C9.86125 38.3657 11.6378 35.028 11.6378 32.0241V9.32769C10.8696 7.46811 9.52514 6.84825 8.37276 6.84825H7.84459V6.37144H9.71721C11.1577 6.37144 12.5982 6.4668 13.8946 6.4668C15.5751 6.4668 16.8236 6.37144 17.8799 6.37144L28.9716 32.9777L39.1029 6.37144C40.1593 6.37144 41.9358 6.4668 43.2323 6.4668C44.3846 6.4668 45.393 6.37144 46.8335 6.37144H48.7541V6.84825H48.562C46.6894 6.84825 45.8251 8.04029 45.8251 10.3767V34.8373C45.8251 37.1737 46.6894 38.3657 48.562 38.3657H48.7571Z" fill="white"/>
<path d="M60.4219 38.8425C58.8854 38.8425 57.7811 38.6995 56.1965 38.6995C54.612 38.6995 53.5077 38.8425 51.9711 38.8425H50.3866V38.4134H50.5787C52.6434 38.4134 53.0755 36.983 53.0755 35.0757V20.5805C53.0755 18.6733 52.6434 17.2428 50.5787 17.2428H50.3866V16.8137H51.8751C54.2279 16.8137 58.1172 16.0985 58.9815 14.8587H59.3176V35.0757C59.3176 36.983 59.7497 38.4134 61.8144 38.4134H62.0065V38.8425H60.4219ZM52.5954 9.23233C52.5954 7.27739 54.1799 5.94231 56.0525 5.94231C57.9251 5.94231 59.5096 7.27739 59.5096 9.23233C59.5096 11.1873 57.8771 12.5224 56.0525 12.5224C54.2279 12.5224 52.5954 11.2349 52.5954 9.23233Z" fill="white"/>
<path d="M62.1205 45.1842C62.1205 42.7047 65.5296 41.4173 68.8427 40.5114C66.3459 40.2253 63.3209 39.0809 63.3209 36.4585C63.3209 33.979 66.0098 32.1671 69.3229 30.8797C66.0098 29.6877 63.8491 27.0175 63.8491 23.3937C63.8491 18.3872 68.0264 15.0972 73.7403 15.0972C75.4689 15.0972 77.1494 15.4309 78.4459 16.0508C79.5502 14.0958 81.5189 11.8548 83.8717 11.8548C85.3602 11.8548 86.3205 12.6654 86.3205 13.9051C86.3205 15.1448 85.4082 15.9554 84.2078 15.9554C82.6713 15.9554 81.9991 14.8587 80.7026 14.8587C79.9824 14.8587 79.4542 15.1925 78.83 16.2415C81.711 17.5289 83.5836 20.056 83.5836 23.346C83.5836 28.3049 79.4542 31.6426 73.7403 31.6426C72.3959 31.6426 71.1475 31.4519 69.9471 31.0704C68.3626 31.6426 67.2102 32.2148 67.2102 33.2638C67.2102 34.1697 68.2665 34.7419 71.1955 35.1234L77.2455 35.8863C82.4792 36.5538 85.9844 38.2704 85.9844 42.4663C85.9844 47.6159 80.3185 50 73.5963 50C67.2582 50 62.1205 47.902 62.1205 45.1842ZM81.903 45.5179C81.903 43.0385 78.734 42.1326 75.661 41.6557L69.659 40.7021C67.2102 41.4173 66.0098 42.9431 66.0098 45.0888C66.0098 47.5682 68.2665 49.5709 73.8364 49.5709C79.4062 49.5709 81.903 47.759 81.903 45.5179ZM77.4375 23.346C77.4375 18.2441 76.4292 15.5263 73.6923 15.5263C70.9554 15.5263 69.9951 18.2441 69.9951 23.346C69.9951 28.448 70.9554 31.1658 73.6923 31.1658C76.4292 31.1658 77.4375 28.4956 77.4375 23.346Z" fill="white"/>
<path d="M96.923 38.8425C95.2904 38.8425 94.1381 38.6995 92.4575 38.6995C90.873 38.6995 89.7686 38.8425 88.2321 38.8425H86.6476V38.4134H86.8397C88.9043 38.4134 89.3365 36.983 89.3365 35.0757V20.5805C89.3365 18.6733 88.9043 17.2428 86.8397 17.2428H86.6476V16.8137H88.0881C90.4889 16.8137 94.3301 16.0985 95.1944 14.8587H95.5785V20.9143C96.3468 19.5792 97.3071 18.0057 98.5075 16.766C99.3718 15.8601 100.524 15.0972 102.061 15.0972C103.693 15.0972 104.798 16.0508 104.798 17.4335C104.798 18.9117 103.789 19.913 102.157 19.913C100.62 19.913 99.6119 18.7686 98.4115 18.7686C97.4512 18.7686 96.5869 19.8176 95.5785 21.7726V35.0757C95.5785 36.983 96.4908 38.4134 98.5555 38.4134H99.4198V38.8425H96.923Z" fill="white"/>
<path d="M119.136 36.3154C117.36 37.7935 114.815 39.224 111.646 39.224C107.805 39.224 105.356 36.9353 105.356 33.1208C105.356 29.3062 108.621 26.8745 112.654 25.2056L118.896 22.6308V18.3872C118.896 16.3846 118.368 15.6693 116.832 15.6693C114.479 15.6693 112.75 17.2428 111.022 20.2468C110.061 22.2494 109.437 23.203 108.093 23.203C106.94 23.203 105.932 22.3447 105.932 21.0097C105.932 17.6243 113.278 15.0972 118.128 15.0972C123.362 15.0972 124.994 16.8137 124.994 20.962V35.3141C124.994 36.6015 125.426 37.126 126.291 37.126C127.155 37.126 127.971 35.9816 128.355 34.9326L128.739 35.0757C128.067 37.3167 126.147 39.224 123.314 39.224C121.105 39.224 119.616 38.1273 119.136 36.3154ZM119.04 35.8386C118.944 35.4095 118.896 34.3605 118.896 33.5499V23.1553L115.583 24.4904C112.366 25.7778 111.694 28.0188 111.694 32.2148C111.694 36.4108 112.606 37.9366 114.479 37.9366C115.967 37.9366 117.504 37.0306 119.04 35.8386Z" fill="white"/>
<path d="M136.296 46.3315H90.2938V45.4375H135.396V0.894028H0.900297V45.4375H56.7397V46.3315H0V0H136.296V46.3315Z" fill="white"/>
<g clip-path="url(#clip0_6_495)">
<path d="M315.146 17.6C312.696 17.6 311.366 20.03 311.366 24.35C311.366 28.67 312.696 31.18 315.146 31.18C317.596 31.18 318.896 28.71 318.896 24.35C318.896 19.99 317.596 17.6 315.146 17.6Z" fill="white"/>
<path d="M218.826 17.6C216.376 17.6 215.046 20.03 215.046 24.35C215.046 28.67 216.376 31.18 218.826 31.18C221.276 31.18 222.576 28.71 222.576 24.35C222.576 19.99 221.276 17.6 218.826 17.6Z" fill="white"/>
<path d="M256.496 17.6C254.046 17.6 252.716 20.03 252.716 24.35C252.716 28.67 254.046 31.18 256.496 31.18C258.946 31.18 260.246 28.71 260.246 24.35C260.246 19.99 258.946 17.6 256.496 17.6Z" fill="white"/>
<path d="M272.776 22.67C274.576 22.67 275.746 21.57 275.746 20.07C275.746 18.57 274.576 17.59 272.776 17.59C270.976 17.59 269.826 18.57 269.826 20.07C269.826 21.57 270.976 22.67 272.776 22.67Z" fill="white"/>
<path d="M344.796 0H169.796C156.816 0 146.296 10.52 146.296 23.5C146.296 36.48 156.816 47 169.796 47H344.796C357.776 47 368.296 36.48 368.296 23.5C368.296 10.52 357.776 0 344.796 0ZM174.796 18.22H165.176V22.72H174.276V25.62H165.176V33.45H161.606V15.33H174.806V18.23L174.796 18.22ZM182.286 31.1C183.336 31.1 184.406 30.72 185.116 29.55H188.666C187.946 31.55 185.966 33.78 182.316 33.78C177.986 33.78 175.466 30.55 175.466 26.68C175.466 22.81 178.246 19.71 182.216 19.71C186.186 19.71 188.966 22.93 188.816 27.68H178.896C179.066 29.98 180.666 31.1 182.296 31.1H182.286ZM198.356 33.78C196.956 33.78 195.326 33.23 194.476 31.75V33.45H191.026V15.33H194.476V21.73C195.196 20.48 196.646 19.71 198.356 19.71C201.606 19.71 204.206 22.51 204.206 26.73C204.206 30.95 201.556 33.78 198.356 33.78ZM218.826 33.78C213.976 33.78 211.526 29.88 211.526 24.35C211.526 18.82 213.976 15 218.826 15C223.676 15 226.096 18.85 226.096 24.35C226.096 29.85 223.646 33.78 218.826 33.78ZM229.176 33.45C229.476 27.15 232.826 22.05 236.876 18.22H227.026V15.32H240.356V18.22C235.626 23.05 233.326 26.92 232.976 33.45H229.176ZM247.096 28.28H238.826V25.28H247.096V28.28ZM256.496 33.78C251.646 33.78 249.196 29.88 249.196 24.35C249.196 18.82 251.646 15 256.496 15C261.346 15 263.776 18.85 263.776 24.35C263.776 29.85 261.326 33.78 256.496 33.78ZM272.776 33.78C268.946 33.78 265.926 31.83 265.926 28.28C265.926 26.53 266.676 24.88 268.706 23.75C267.206 22.9 266.486 21.28 266.486 19.67C266.486 16.97 268.956 15 272.786 15C276.616 15 279.116 16.97 279.116 19.65C279.116 21.27 278.466 22.8 276.916 23.75C278.936 24.9 279.666 26.53 279.666 28.28C279.666 31.83 276.636 33.78 272.786 33.78H272.776ZM285.456 33.73L283.406 37.71H281.426L283.276 33.46H281.576V29.71H285.456V33.73ZM306.266 33.46H292.936V30.66C298.766 25.96 302.356 22.93 302.356 20.06C302.356 18.48 301.356 17.56 299.686 17.56C298.156 17.56 296.606 18.48 296.606 21.18H293.256C293.206 17.43 295.856 15.01 299.876 15.01C303.496 15.01 305.826 16.73 305.826 19.89C305.826 23.29 302.526 26.84 296.946 30.56H306.246V33.46H306.266ZM315.146 33.79C310.296 33.79 307.846 29.89 307.846 24.36C307.846 18.83 310.296 15.01 315.146 15.01C319.996 15.01 322.426 18.86 322.426 24.36C322.426 29.86 319.976 33.79 315.146 33.79ZM337.326 33.46H323.996V30.66C329.826 25.96 333.416 22.93 333.416 20.06C333.416 18.48 332.416 17.56 330.746 17.56C329.226 17.56 327.666 18.48 327.666 21.18H324.316C324.266 17.43 326.916 15.01 330.936 15.01C334.556 15.01 336.886 16.73 336.886 19.89C336.886 23.29 333.586 26.84 328.006 30.56H337.306V33.46H337.326ZM353.086 29.11H349.986V33.46H346.566V29.11H337.616V26.41L346.616 15.33H349.996V26.18H353.096V29.1L353.086 29.11Z" fill="white"/>
<path d="M272.776 25.15C270.746 25.15 269.446 26.32 269.446 28.12C269.446 29.92 270.746 31.17 272.776 31.17C274.806 31.17 276.126 29.92 276.126 28.12C276.126 26.32 274.826 25.15 272.776 25.15Z" fill="white"/>
<path d="M346.556 26.17V19.7L341.386 26.17H346.556Z" fill="white"/>
<path d="M182.186 22.22C180.886 22.22 179.206 23.05 178.936 25.3H185.316C185.236 23.03 183.646 22.22 182.196 22.22H182.186Z" fill="white"/>
<path d="M197.506 22.35C195.606 22.35 194.356 24.03 194.356 26.73C194.356 29.43 195.606 31.13 197.506 31.13C199.286 31.13 200.586 29.38 200.586 26.75C200.586 24.12 199.286 22.35 197.506 22.35Z" fill="white"/>
</g>
<defs>
<clipPath id="clip0_6_495">
<rect width="222" height="47" fill="white" transform="translate(146.296)"/>
</clipPath>
</defs>
</svg>
