<?xml version="1.0" encoding="utf-8"?>
<!-- Generator: Adobe Illustrator 27.7.0, SVG Export Plug-In . SVG Version: 6.00 Build 0)  -->
<svg version="1.1"
	 id="Ebene_1" xmlns:svg="http://www.w3.org/2000/svg" xmlns:cc="http://creativecommons.org/ns#" xmlns:rdf="http://www.w3.org/1999/02/22-rdf-syntax-ns#" xmlns:sodipodi="http://sodipodi.sourceforge.net/DTD/sodipodi-0.dtd" xmlns:dc="http://purl.org/dc/elements/1.1/" xmlns:inkscape="http://www.inkscape.org/namespaces/inkscape"
	 xmlns="http://www.w3.org/2000/svg" xmlns:xlink="http://www.w3.org/1999/xlink" x="0px" y="0px" width="25px" height="25px"
	 viewBox="0 0 25 25" style="enable-background:new 0 0 25 25;" xml:space="preserve">
<path d="M6,2.5c-0.3,0-0.6,0.3-0.6,0.7v6.4H4.7c-0.9,0-1.6,0.7-1.6,1.6v7.1c0,0.9,0.7,1.6,1.6,1.6h0.7v2c0,0.4,0.3,0.7,0.7,0.7h12.9
	c0.4,0,0.7-0.3,0.7-0.7v-2h0.7c0.9,0,1.6-0.7,1.6-1.6v-7.1c0-0.9-0.7-1.6-1.6-1.6h-0.7V5.9c0-0.2-0.1-0.3-0.2-0.5l-2.7-2.7
	c-0.1-0.1-0.3-0.2-0.5-0.2H6C6,2.5,6,2.5,6,2.5z M6.7,3.8H16l2.3,2.3v3.4H6.7V3.8z M4.7,10.9h15.6c0.1,0,0.2,0.1,0.2,0.2v7.1
	c0,0.1-0.1,0.2-0.2,0.2h-0.7v-1.1c0-0.4-0.3-0.7-0.7-0.7H6.1c0,0,0,0-0.1,0c-0.3,0-0.6,0.3-0.6,0.7v1.1H4.7c-0.1,0-0.2-0.1-0.2-0.2
	v-7.1C4.5,11,4.6,10.9,4.7,10.9z M6.2,11.8c-0.4,0-0.7,0.3-0.6,0.7c0,0.4,0.3,0.7,0.7,0.6l0,0h2.2c0.4,0,0.7-0.3,0.7-0.7
	c0-0.4-0.3-0.7-0.7-0.7c0,0,0,0,0,0H6.2C6.3,11.8,6.2,11.8,6.2,11.8z M16.5,11.8c-0.4,0-0.7,0.3-0.7,0.7s0.3,0.7,0.7,0.7
	s0.7-0.3,0.7-0.7S16.9,11.8,16.5,11.8z M18.7,11.8c-0.4,0-0.7,0.3-0.7,0.7s0.3,0.7,0.7,0.7s0.7-0.3,0.7-0.7S19.1,11.8,18.7,11.8z
	 M6.7,18.1h11.6v3.1H6.7V18.1z"/>
</svg>
